<?xml version="1.0" encoding="UTF-8" standalone="no"?>
<!DOCTYPE svg PUBLIC "-//W3C//DTD SVG 1.1//EN" "http://www.w3.org/Graphics/SVG/1.1/DTD/svg11.dtd">
<!-- Created with Vectornator (http://vectornator.io/) -->
<svg height="100%" stroke-miterlimit="10" style="fill-rule:nonzero;clip-rule:evenodd;stroke-linecap:round;stroke-linejoin:round;" version="1.1" viewBox="238.293 179.646 2914.77 1808.94" width="100%" xml:space="preserve" xmlns="http://www.w3.org/2000/svg" xmlns:xlink="http://www.w3.org/1999/xlink">
<defs/>
<g id="Capa-1">
<path d="M238.293 179.646L3153.06 179.646L3153.06 1988.59L238.293 1988.59L238.293 179.646Z" fill="#0d8110" fill-rule="nonzero" opacity="1" stroke="none"/>
<path d="M736.72 1801.25L889.958 1801.25L889.958 1885.06L736.72 1885.06L736.72 1801.25Z" fill="#0d8110" fill-rule="nonzero" opacity="1" stroke="none"/>
<path d="M1645.81 383.176L2602.34 383.176L2602.34 477.673L1645.81 477.673L1645.81 383.176Z" fill="none" opacity="1" stroke="#ffffff" stroke-dasharray="20.0" stroke-linecap="butt" stroke-linejoin="miter" stroke-width="5"/>
<path d="M2620.78 383.176L2818.32 383.176L2818.32 477.673L2620.78 477.673L2620.78 383.176Z" fill="none" opacity="1" stroke="#ffffff" stroke-dasharray="20.0" stroke-linecap="butt" stroke-linejoin="miter" stroke-width="5"/>
<path d="M2922.61 477.982L2918.51 1675.64L2824.02 1675.32L2828.12 477.659L2922.61 477.982Z" fill="none" opacity="1" stroke="#ffffff" stroke-dasharray="20.0" stroke-linecap="butt" stroke-linejoin="miter" stroke-width="5"/>
<path d="M1620.66 1765.64L1311.17 1766.83L1310.81 1672.33L1620.3 1671.15L1620.66 1765.64Z" fill="none" opacity="1" stroke="#ffffff" stroke-dasharray="20.0" stroke-linecap="butt" stroke-linejoin="miter" stroke-width="5"/>
<path d="M1290.66 1765.64L662.925 1768.05L662.563 1673.55L1290.3 1671.15L1290.66 1765.64Z" fill="none" opacity="1" stroke="#ffffff" stroke-dasharray="20.0" stroke-linecap="butt" stroke-linejoin="miter" stroke-width="5"/>
<path d="M435.297 475.165L651.996 475.165L651.996 1675.8L435.297 1675.8L435.297 475.165Z" fill="#086c0a" fill-rule="nonzero" opacity="1" stroke="none"/>
<path d="M988.778 475.516L1311.01 475.516L1311.01 1676.15L988.778 1676.15L988.778 475.516Z" fill="#086c0a" fill-rule="nonzero" opacity="1" stroke="none"/>
<path d="M1960.89 475.165L2283.12 475.165L2283.12 1675.8L1960.89 1675.8L1960.89 475.165Z" fill="#086c0a" fill-rule="nonzero" opacity="1" stroke="none"/>
<path d="M2611.42 477.673L2828.12 477.673L2828.12 1678.3L2611.42 1678.3L2611.42 477.673Z" fill="#086c0a" fill-rule="nonzero" opacity="1" stroke="none"/>
<g opacity="1">
<path d="M1631.79 1774.31L1631.79 383.176" fill="none" opacity="1" stroke="#ffffff" stroke-linecap="butt" stroke-linejoin="miter" stroke-width="12"/>
<g opacity="1">
<path d="M1954.77 1086.38L2482 1089.18" fill="none" opacity="1" stroke="#ffffff" stroke-linecap="butt" stroke-linejoin="miter" stroke-width="12"/>
<path d="M1959.24 1353.09L1955.53 822.463" fill="none" opacity="1" stroke="#ffffff" stroke-linecap="butt" stroke-linejoin="miter" stroke-width="12"/>
</g>
<g opacity="1">
<path d="M1311.01 1088.36L783.767 1087.2" fill="none" opacity="1" stroke="#ffffff" stroke-linecap="butt" stroke-linejoin="miter" stroke-width="12"/>
<path d="M1307.75 821.646L1309.03 1353.67" fill="none" opacity="1" stroke="#ffffff" stroke-linecap="butt" stroke-linejoin="miter" stroke-width="12"/>
</g>
<path d="M651.996 1679.89L651.996 478.283" fill="none" opacity="1" stroke="#ffffff" stroke-linecap="butt" stroke-linejoin="miter" stroke-width="12"/>
<path d="M2611.42 1684.14L2611.42 475.759" fill="none" opacity="1" stroke="#ffffff" stroke-linecap="butt" stroke-linejoin="miter" stroke-width="12"/>
</g>
<path d="M435.297 475.165L2827.31 475.165L2827.31 1675.8L435.297 1675.8L435.297 475.165Z" fill="none" opacity="1" stroke="#ffffff" stroke-linecap="butt" stroke-linejoin="miter" stroke-width="12"/>
<g opacity="1">
<path d="M900.889 1736.83L1008.41 1736.83L1008.41 1796.83L900.889 1796.83L900.889 1736.83Z" fill="#0d8110" fill-rule="nonzero" opacity="1" stroke="none"/>
<g fill="#ffffff" opacity="1" stroke="none">
<path d="M922.026 1785.83C922.189 1782.82 922.812 1780.2 923.894 1777.97C924.976 1775.74 927.088 1773.71 930.23 1771.89L934.917 1769.18C937.017 1767.96 938.49 1766.92 939.336 1766.05C940.671 1764.7 941.338 1763.16 941.338 1761.42C941.338 1759.38 940.728 1757.77 939.507 1756.57C938.286 1755.37 936.659 1754.78 934.624 1754.78C931.613 1754.78 929.53 1755.91 928.374 1758.19C927.756 1759.41 927.414 1761.11 927.349 1763.27L922.881 1763.27C922.93 1760.23 923.491 1757.75 924.565 1755.82C926.47 1752.44 929.831 1750.75 934.648 1750.75C938.652 1750.75 941.578 1751.83 943.425 1753.99C945.273 1756.16 946.196 1758.57 946.196 1761.22C946.196 1764.02 945.212 1766.41 943.242 1768.4C942.103 1769.55 940.06 1770.95 937.114 1772.6L933.77 1774.45C932.175 1775.33 930.921 1776.17 930.01 1776.97C928.382 1778.38 927.357 1779.95 926.934 1781.68L946.025 1781.68L946.025 1785.83L922.026 1785.83Z"/>
<path d="M951.494 1759.68L955.84 1759.68L955.84 1763.39C956.882 1762.11 957.826 1761.17 958.672 1760.59C960.12 1759.59 961.764 1759.1 963.604 1759.1C965.687 1759.1 967.363 1759.61 968.633 1760.63C969.349 1761.22 970 1762.08 970.586 1763.22C971.563 1761.82 972.71 1760.79 974.028 1760.11C975.347 1759.43 976.828 1759.1 978.472 1759.1C981.987 1759.1 984.38 1760.37 985.649 1762.91C986.333 1764.27 986.675 1766.11 986.675 1768.42L986.675 1785.83L982.109 1785.83L982.109 1767.67C982.109 1765.92 981.674 1764.73 980.803 1764.08C979.933 1763.43 978.87 1763.1 977.617 1763.1C975.892 1763.1 974.407 1763.68 973.162 1764.83C971.917 1765.99 971.294 1767.92 971.294 1770.62L971.294 1785.83L966.826 1785.83L966.826 1768.76C966.826 1766.99 966.615 1765.7 966.191 1764.88C965.524 1763.66 964.279 1763.05 962.456 1763.05C960.796 1763.05 959.286 1763.69 957.927 1764.98C956.568 1766.27 955.889 1768.59 955.889 1771.96L955.889 1785.83L951.494 1785.83L951.494 1759.68Z"/>
</g>
</g>
<g opacity="1">
<path d="M2068.24 351.176L2175.77 351.176L2175.77 411.176L2068.24 411.176L2068.24 351.176Z" fill="#0d8110" fill-rule="nonzero" opacity="1" stroke="none"/>
<g fill="#ffffff" opacity="1" stroke="none">
<path d="M2100.81 401.128C2096.67 401.128 2093.67 399.993 2091.81 397.723C2089.95 395.452 2089.02 392.689 2089.02 389.434L2093.61 389.434C2093.8 391.696 2094.22 393.34 2094.88 394.366C2096.01 396.205 2098.07 397.124 2101.05 397.124C2103.36 397.124 2105.22 396.506 2106.62 395.269C2108.02 394.032 2108.72 392.437 2108.72 390.484C2108.72 388.075 2107.98 386.39 2106.51 385.43C2105.04 384.47 2102.99 383.99 2100.37 383.99C2100.08 383.99 2099.78 383.994 2099.48 384.002C2099.18 384.01 2098.87 384.022 2098.56 384.039L2098.56 380.157C2099.02 380.206 2099.4 380.238 2099.71 380.254C2100.02 380.271 2100.35 380.279 2100.71 380.279C2102.35 380.279 2103.7 380.018 2104.76 379.498C2106.62 378.586 2107.55 376.958 2107.55 374.615C2107.55 372.873 2106.93 371.53 2105.69 370.586C2104.45 369.642 2103.01 369.17 2101.37 369.17C2098.44 369.17 2096.41 370.147 2095.29 372.1C2094.67 373.174 2094.32 374.704 2094.24 376.69L2089.89 376.69C2089.89 374.086 2090.42 371.872 2091.46 370.049C2093.25 366.794 2096.4 365.166 2100.91 365.166C2104.47 365.166 2107.23 365.96 2109.18 367.547C2111.13 369.134 2112.11 371.433 2112.11 374.444C2112.11 376.592 2111.53 378.334 2110.38 379.668C2109.66 380.499 2108.73 381.15 2107.59 381.622C2109.43 382.126 2110.87 383.099 2111.9 384.539C2112.94 385.979 2113.45 387.741 2113.45 389.825C2113.45 393.161 2112.36 395.879 2110.16 397.979C2107.96 400.079 2104.84 401.128 2100.81 401.128Z"/>
<path d="M2118.85 374.029L2123.2 374.029L2123.2 377.74C2124.24 376.454 2125.18 375.518 2126.03 374.932C2127.48 373.939 2129.12 373.443 2130.96 373.443C2133.04 373.443 2134.72 373.956 2135.99 374.981C2136.7 375.567 2137.36 376.43 2137.94 377.569C2138.92 376.169 2140.07 375.131 2141.38 374.456C2142.7 373.781 2144.18 373.443 2145.83 373.443C2149.34 373.443 2151.74 374.712 2153.01 377.251C2153.69 378.619 2154.03 380.458 2154.03 382.769L2154.03 400.176L2149.46 400.176L2149.46 382.012C2149.46 380.271 2149.03 379.074 2148.16 378.423C2147.29 377.772 2146.23 377.447 2144.97 377.447C2143.25 377.447 2141.76 378.025 2140.52 379.18C2139.27 380.336 2138.65 382.264 2138.65 384.966L2138.65 400.176L2134.18 400.176L2134.18 383.111C2134.18 381.337 2133.97 380.043 2133.55 379.229C2132.88 378.008 2131.63 377.398 2129.81 377.398C2128.15 377.398 2126.64 378.041 2125.28 379.327C2123.92 380.612 2123.24 382.94 2123.24 386.309L2123.24 400.176L2118.85 400.176L2118.85 374.029Z"/>
</g>
</g>
<g opacity="1">
<path d="M2957.49 1017.95L2956.67 1125.47L2896.67 1125.01L2897.49 1017.49L2957.49 1017.95Z" fill="#0d8110" fill-rule="nonzero" opacity="1" stroke="none"/>
<g fill="#ffffff" opacity="1" stroke="none">
<path d="M2907.29 1050.13C2907.32 1046 2908.48 1043.01 2910.76 1041.16C2913.05 1039.31 2915.82 1038.4 2919.07 1038.43L2919.04 1043.02C2916.77 1043.2 2915.12 1043.61 2914.09 1044.25C2912.25 1045.38 2911.31 1047.43 2911.29 1050.41C2911.27 1052.72 2911.88 1054.58 2913.1 1055.99C2914.33 1057.4 2915.92 1058.11 2917.87 1058.12C2920.28 1058.14 2921.97 1057.42 2922.94 1055.95C2923.91 1054.49 2924.41 1052.44 2924.43 1049.82C2924.43 1049.53 2924.43 1049.23 2924.42 1048.93C2924.42 1048.63 2924.41 1048.32 2924.39 1048.02L2928.27 1048.05C2928.22 1048.5 2928.19 1048.88 2928.17 1049.19C2928.15 1049.5 2928.14 1049.83 2928.14 1050.19C2928.12 1051.84 2928.37 1053.19 2928.89 1054.25C2929.78 1056.11 2931.4 1057.05 2933.75 1057.07C2935.49 1057.08 2936.84 1056.48 2937.79 1055.25C2938.74 1054.02 2939.23 1052.58 2939.24 1050.94C2939.26 1048.01 2938.3 1045.97 2936.36 1044.84C2935.29 1044.21 2933.76 1043.85 2931.77 1043.75L2931.81 1039.4C2934.41 1039.42 2936.62 1039.96 2938.44 1041.02C2941.68 1042.83 2943.28 1045.99 2943.25 1050.5C2943.22 1054.07 2942.41 1056.82 2940.8 1058.76C2939.2 1060.7 2936.9 1061.66 2933.88 1061.64C2931.74 1061.62 2930 1061.03 2928.67 1059.86C2927.85 1059.14 2927.2 1058.21 2926.74 1057.07C2926.22 1058.9 2925.24 1060.33 2923.79 1061.35C2922.34 1062.38 2920.58 1062.88 2918.49 1062.86C2915.16 1062.84 2912.45 1061.72 2910.36 1059.51C2908.28 1057.29 2907.26 1054.17 2907.29 1050.13Z"/>
<path d="M2934.25 1068.38L2934.21 1072.72L2930.5 1072.7C2931.78 1073.75 2932.71 1074.7 2933.29 1075.55C2934.27 1077.01 2934.76 1078.65 2934.74 1080.49C2934.73 1082.58 2934.2 1084.25 2933.17 1085.51C2932.57 1086.22 2931.71 1086.87 2930.56 1087.44C2931.96 1088.43 2932.98 1089.59 2933.65 1090.91C2934.31 1092.23 2934.64 1093.72 2934.63 1095.36C2934.6 1098.88 2933.31 1101.26 2930.77 1102.51C2929.39 1103.18 2927.55 1103.51 2925.24 1103.49L2907.83 1103.36L2907.87 1098.79L2926.03 1098.93C2927.77 1098.95 2928.97 1098.52 2929.63 1097.65C2930.29 1096.79 2930.62 1095.73 2930.63 1094.48C2930.64 1092.75 2930.08 1091.26 2928.93 1090.01C2927.79 1088.75 2925.86 1088.12 2923.16 1088.1L2907.95 1087.98L2907.98 1083.51L2925.05 1083.64C2926.82 1083.66 2928.12 1083.45 2928.94 1083.04C2930.16 1082.38 2930.78 1081.14 2930.8 1079.32C2930.81 1077.66 2930.18 1076.14 2928.9 1074.77C2927.63 1073.4 2925.3 1072.71 2921.93 1072.68L2908.07 1072.57L2908.1 1068.18L2934.25 1068.38Z"/>
</g>
</g>
<g opacity="1">
<path d="M2664.79 351.176L2772.31 351.176L2772.31 411.176L2664.79 411.176L2664.79 351.176Z" fill="#0d8110" fill-rule="nonzero" opacity="1" stroke="none"/>
<g fill="#ffffff" opacity="1" stroke="none">
<path d="M2689.15 375.42L2689.15 372.051C2692.32 371.742 2694.54 371.225 2695.79 370.501C2697.04 369.777 2697.98 368.064 2698.6 365.362L2702.06 365.362L2702.06 400.176L2697.38 400.176L2697.38 375.42L2689.15 375.42Z"/>
<path d="M2715.39 374.029L2719.74 374.029L2719.74 377.74C2720.78 376.454 2721.72 375.518 2722.57 374.932C2724.02 373.939 2725.66 373.443 2727.5 373.443C2729.59 373.443 2731.26 373.956 2732.53 374.981C2733.25 375.567 2733.9 376.43 2734.49 377.569C2735.46 376.169 2736.61 375.131 2737.93 374.456C2739.25 373.781 2740.73 373.443 2742.37 373.443C2745.89 373.443 2748.28 374.712 2749.55 377.251C2750.23 378.619 2750.57 380.458 2750.57 382.769L2750.57 400.176L2746.01 400.176L2746.01 382.012C2746.01 380.271 2745.57 379.074 2744.7 378.423C2743.83 377.772 2742.77 377.447 2741.52 377.447C2739.79 377.447 2738.31 378.025 2737.06 379.18C2735.82 380.336 2735.19 382.264 2735.19 384.966L2735.19 400.176L2730.73 400.176L2730.73 383.111C2730.73 381.337 2730.51 380.043 2730.09 379.229C2729.42 378.008 2728.18 377.398 2726.36 377.398C2724.7 377.398 2723.19 378.041 2721.83 379.327C2720.47 380.612 2719.79 382.94 2719.79 386.309L2719.79 400.176L2715.39 400.176L2715.39 374.029Z"/>
</g>
</g>
<g opacity="1">
<path d="M1411.98 1736.83L1519.5 1736.83L1519.5 1796.83L1411.98 1796.83L1411.98 1736.83Z" fill="#0d8110" fill-rule="nonzero" opacity="1" stroke="none"/>
<g fill="#ffffff" opacity="1" stroke="none">
<path d="M1436.34 1761.07L1436.34 1757.7C1439.51 1757.4 1441.72 1756.88 1442.98 1756.15C1444.23 1755.43 1445.16 1753.72 1445.78 1751.02L1449.25 1751.02L1449.25 1785.83L1444.56 1785.83L1444.56 1761.07L1436.34 1761.07Z"/>
<path d="M1462.58 1759.68L1466.93 1759.68L1466.93 1763.39C1467.97 1762.11 1468.91 1761.17 1469.76 1760.59C1471.21 1759.59 1472.85 1759.1 1474.69 1759.1C1476.77 1759.1 1478.45 1759.61 1479.72 1760.63C1480.44 1761.22 1481.09 1762.08 1481.67 1763.22C1482.65 1761.82 1483.8 1760.79 1485.11 1760.11C1486.43 1759.43 1487.91 1759.1 1489.56 1759.1C1493.07 1759.1 1495.47 1760.37 1496.74 1762.91C1497.42 1764.27 1497.76 1766.11 1497.76 1768.42L1497.76 1785.83L1493.2 1785.83L1493.2 1767.67C1493.2 1765.92 1492.76 1764.73 1491.89 1764.08C1491.02 1763.43 1489.96 1763.1 1488.7 1763.1C1486.98 1763.1 1485.49 1763.68 1484.25 1764.83C1483 1765.99 1482.38 1767.92 1482.38 1770.62L1482.38 1785.83L1477.91 1785.83L1477.91 1768.76C1477.91 1766.99 1477.7 1765.7 1477.28 1764.88C1476.61 1763.66 1475.37 1763.05 1473.54 1763.05C1471.88 1763.05 1470.37 1763.69 1469.01 1764.98C1467.65 1766.27 1466.97 1768.59 1466.97 1771.96L1466.97 1785.83L1462.58 1785.83L1462.58 1759.68Z"/>
</g>
</g>
</g>
</svg>
