<?xml version="1.0" encoding="UTF-8" standalone="no"?>
<!DOCTYPE svg PUBLIC "-//W3C//DTD SVG 1.1//EN" "http://www.w3.org/Graphics/SVG/1.1/DTD/svg11.dtd">
<!-- Created with Vectornator (http://vectornator.io/) -->
<svg height="100%" stroke-miterlimit="10"
    style="fill-rule:nonzero;clip-rule:evenodd;stroke-linecap:round;stroke-linejoin:round;" version="1.1"
    viewBox="143.629 75.9266 764.769 666.791" width="100%" xml:space="preserve" xmlns="http://www.w3.org/2000/svg"
    xmlns:xlink="http://www.w3.org/1999/xlink">
    <defs />
    <g id="Isotipo">
        <g opacity="1" fill="#FFF">
            <path
                d="M526.014 75.9266L323.532 428.991L261.215 428.991L261.215 448.599L312.257 448.661L357.784 448.691L526.412 154.634L686.278 433.403L694.948 448.599L790.598 448.599L790.598 429.145L728.527 429.053L526.014 75.9266ZM706.188 468.207L841.456 703.992L211.369 703.992L346.54 468.299L346.479 468.299L346.54 468.207L241.699 468.207L241.699 487.815L289.8 487.784L143.629 742.718L908.399 742.718L762.228 487.815L810.298 487.754L810.298 468.146L750.984 468.207L706.188 468.207Z" />
            <path
                d="M555.287 259.473C553.764 259.485 553.061 259.702 553.131 259.672C534.512 264.793 532.337 273.791 531.894 275.908C531.067 279.868 529.61 298.975 529.61 298.975C529.61 298.975 527.986 302.629 527.986 302.55C521.187 301.401 513.088 308.942 513.183 308.862C467.72 298.77 456.391 328.939 456.601 328.737C427.124 336.867 419.093 349.208 419.093 349.208C419.093 349.208 424.056 360.132 423.59 360.309C401.652 374.725 418.154 431.186 418.263 431.19C408.329 459.926 413.078 473.131 413.078 473.131C413.078 473.131 413.156 475.106 416.497 475.479C414.746 499.623 423.172 505.071 423.172 505.071C423.172 505.071 428.656 512.608 446.628 504.596C446.981 504.839 463.26 514.885 485.03 485.083C490.342 520.905 511.764 535.628 511.764 535.628L512.225 530.316L545.925 569.697C545.925 569.697 525.877 588.208 570.637 636.435C583.262 671.826 571.651 673.54 576.439 692.159C586.355 704.284 610.521 698.369 612.564 694.897C611.064 677.677 600.346 671.839 594.299 656.998C594.462 656.899 592.285 656.41 592.285 656.41C592.285 656.41 587.174 654.419 583.936 596.494C584.004 597.037 590.084 601.464 592.264 596.757C594.32 585.626 584.461 567.81 584.461 567.81L592.157 567.838C592.157 567.838 612.476 572.571 616.643 568.526C619.75 565.51 623.959 549.646 601.889 510.363C592.753 488.395 580.065 464.911 565.246 448.405C565.099 448.641 564.884 446.312 564.884 446.312C564.884 446.312 578.725 435.175 582.419 412.854C582.52 413.08 615.522 380.547 585.086 362.238C585.107 362.422 579.86 346.763 568.459 342.547C568.321 342.597 568.234 329.974 568.234 329.974C568.234 329.974 571.558 330.804 573.072 329.801C573.829 328.432 572.89 326.317 572.89 326.317C572.89 326.317 575.467 325.727 575.595 323.436C575.571 323.397 575.944 317.576 575.944 317.576C575.944 317.576 582.388 318.33 583.424 317.63C584.577 314.432 582.8 303.668 582.8 303.668C582.8 303.668 585.412 303.472 586.376 302.323C587.59 299.067 586.376 288.413 586.376 288.413C586.376 288.413 600.235 288.948 591.987 277.632C571.764 261.303 559.856 259.439 555.287 259.473ZM468.525 371.076C464.365 381.986 471.023 393.99 470.901 393.937C466.182 403.986 474.923 417.892 474.951 417.607C479.195 438.678 488.191 456.99 488.201 457.016C486.175 458.808 485.757 467.144 485.69 467.095C479.682 469.686 470.421 469.542 470.454 469.514C478.197 440.909 459.559 430.942 459.559 430.942C459.559 430.942 449.938 427.666 436.961 436.815C436.994 436.84 435.895 432.99 432.946 432.119C432.903 432.202 432.449 424.338 432.449 424.338C432.449 424.338 440.939 405.24 442.727 382.219C442.721 382.272 459.785 378.581 468.525 371.076Z" />
        </g>
    </g>
</svg>