<?xml version="1.0" encoding="UTF-8" standalone="no"?>
<!DOCTYPE svg PUBLIC "-//W3C//DTD SVG 1.1//EN" "http://www.w3.org/Graphics/SVG/1.1/DTD/svg11.dtd">
<!-- Created with Vectornator (http://vectornator.io/) -->
<svg height="100%" stroke-miterlimit="10"
    style="fill-rule:nonzero;clip-rule:evenodd;stroke-linecap:round;stroke-linejoin:round;" version="1.1"
    viewBox="1580.82 655.254 842.617 984.12" width="100%" xml:space="preserve" xmlns="http://www.w3.org/2000/svg"
    xmlns:xlink="http://www.w3.org/1999/xlink">
    <defs />
    <g id="Imagotipo" fill="#000000">
        <g>
            <path
                d="M2001.06 655.254L1778.53 1043.27L1710.04 1043.27L1710.04 1064.82L1766.14 1064.89L1816.17 1064.92L2001.49 741.753L2177.19 1048.12L2186.71 1064.82L2291.83 1064.82L2291.83 1043.44L2223.62 1043.34L2001.06 655.254ZM2199.07 1086.37L2347.73 1345.49L1655.26 1345.49L1803.82 1086.47L1803.75 1086.47L1803.82 1086.37L1688.6 1086.37L1688.6 1107.92L1741.46 1107.88L1580.82 1388.05L2421.29 1388.05L2260.65 1107.92L2313.48 1107.85L2313.48 1086.3L2248.3 1086.37L2199.07 1086.37Z" />
            <path
                d="M2033.23 856.97C2031.55 856.983 2030.78 857.222 2030.86 857.189C2010.4 862.817 2008.01 872.706 2007.52 875.032C2006.61 879.384 2005.01 900.382 2005.01 900.382C2005.01 900.382 2003.22 904.399 2003.22 904.311C1995.75 903.048 1986.85 911.337 1986.96 911.249C1936.99 900.158 1924.54 933.312 1924.77 933.091C1892.38 942.026 1883.55 955.588 1883.55 955.588C1883.55 955.588 1889 967.594 1888.49 967.788C1864.38 983.632 1882.52 1045.68 1882.64 1045.69C1871.72 1077.27 1876.94 1091.78 1876.94 1091.78C1876.94 1091.78 1877.03 1093.95 1880.7 1094.36C1878.77 1120.89 1888.03 1126.88 1888.03 1126.88C1888.03 1126.88 1894.06 1135.16 1913.81 1126.36C1914.2 1126.63 1932.09 1137.67 1956.02 1104.91C1961.85 1144.28 1985.4 1160.46 1985.4 1160.46L1985.9 1154.62L2022.94 1197.9C2022.94 1197.9 2000.91 1218.25 2050.1 1271.25C2063.97 1310.14 2051.21 1312.03 2056.47 1332.49C2067.37 1345.81 2093.93 1339.31 2096.17 1335.5C2094.53 1316.57 2082.75 1310.16 2076.1 1293.85C2076.28 1293.74 2073.89 1293.2 2073.89 1293.2C2073.89 1293.2 2068.27 1291.01 2064.71 1227.35C2064.79 1227.95 2071.47 1232.82 2073.86 1227.64C2076.12 1215.41 2065.29 1195.83 2065.29 1195.83L2073.75 1195.86C2073.75 1195.86 2096.08 1201.06 2100.66 1196.62C2104.07 1193.3 2108.7 1175.87 2084.44 1132.7C2074.4 1108.55 2060.46 1082.75 2044.17 1064.6C2044.01 1064.86 2043.77 1062.31 2043.77 1062.31C2043.77 1062.31 2058.99 1050.06 2063.04 1025.53C2063.16 1025.78 2099.43 990.029 2065.98 969.908C2066 970.111 2060.23 952.901 2047.7 948.268C2047.55 948.323 2047.46 934.451 2047.46 934.451C2047.46 934.451 2051.11 935.363 2052.77 934.26C2053.6 932.756 2052.57 930.431 2052.57 930.431C2052.57 930.431 2055.4 929.782 2055.55 927.265C2055.52 927.223 2055.93 920.825 2055.93 920.825C2055.93 920.825 2063.01 921.654 2064.15 920.885C2065.42 917.369 2063.46 905.54 2063.46 905.54C2063.46 905.54 2066.33 905.325 2067.39 904.062C2068.73 900.483 2067.39 888.775 2067.39 888.775C2067.39 888.775 2082.62 889.363 2073.56 876.926C2051.34 858.982 2038.25 856.933 2033.23 856.97ZM1937.88 979.621C1933.31 991.611 1940.62 1004.8 1940.49 1004.75C1935.3 1015.79 1944.91 1031.07 1944.94 1030.76C1949.6 1053.91 1959.49 1074.04 1959.5 1074.07C1957.27 1076.04 1956.81 1085.2 1956.74 1085.15C1950.14 1087.99 1939.96 1087.83 1940 1087.8C1948.51 1056.37 1928.02 1045.41 1928.02 1045.41C1928.02 1045.41 1917.45 1041.81 1903.19 1051.87C1903.22 1051.9 1902.02 1047.66 1898.78 1046.71C1898.73 1046.8 1898.23 1038.16 1898.23 1038.16C1898.23 1038.16 1907.56 1017.17 1909.52 991.867C1909.52 991.925 1928.27 987.869 1937.88 979.621Z" />
        </g>
        <g>
            <g>
                <path
                    d="M1616.57 1552.53L1680.75 1629.8L1713.73 1629.8L1658.1 1563.6C1688.31 1558.32 1703.66 1534.65 1703.66 1509.73C1703.66 1481.79 1684.53 1453.6 1646.27 1453.6L1582.08 1453.6L1582.08 1629.8L1607.25 1629.8L1607.25 1479.28L1646.27 1479.28C1667.67 1479.28 1678.24 1494.63 1678.24 1509.73C1678.24 1525.09 1667.67 1540.44 1646.27 1540.44L1616.57 1540.44L1616.57 1552.53Z" />
                <path
                    d="M1884.97 1576.65C1861.41 1594.08 1841.25 1604.53 1815.47 1618.45C1799.94 1626.84 1857.47 1586.83 1894.73 1519.95C1856.73 1554.93 1795.52 1635.32 1760.66 1612.82C1738.45 1598.48 1754.03 1486.71 1851.02 1410.03C1840.56 1416.54 1829.78 1422.55 1819.64 1429.54C1788.16 1451.24 1765.17 1483.67 1749.71 1518.21C1742.55 1534.21 1737.66 1553.67 1735.91 1570.95C1734.95 1580.5 1735.21 1590.15 1735.53 1599.75C1736.59 1631.61 1757.93 1644.36 1787.71 1637.63C1827.4 1628.66 1856.94 1604.6 1884.97 1576.65Z" />
                <path
                    d="M2076.88 1515.36C2067.57 1468.54 2026.79 1451.17 1993.06 1451.17C1944.48 1451.17 1906.47 1488.42 1906.47 1540.53C1906.47 1592.38 1943.72 1629.63 1993.06 1629.63C2025.02 1629.63 2061.27 1607.99 2073.35 1574.26L2073.35 1574.51C2075.62 1568.72 2076.88 1558.9 2078.14 1544.05L1983.24 1544.05L1983.24 1569.47L2048.43 1569.47C2037.86 1595.15 2014.7 1605.22 1993.06 1605.22C1958.57 1605.22 1931.89 1577.78 1931.89 1540.53C1931.89 1503.52 1958.57 1476.59 1993.06 1476.59C2015.46 1476.59 2042.65 1486.91 2049.69 1515.36L2076.88 1515.36Z" />
                <path
                    d="M2117.41 1476.59L2165.48 1476.59C2193.17 1476.59 2192.67 1522.4 2164.98 1522.4L2117.41 1522.4L2117.41 1476.59ZM2092.23 1452.43L2092.23 1628.38L2171.78 1628.38C2205.51 1628.38 2222.87 1601.69 2222.87 1575.26C2222.87 1558.65 2215.57 1540.02 2195.44 1531.46C2213.06 1518.88 2215.32 1498.74 2208.28 1481.37C2201.73 1465.01 2187.63 1452.43 2165.48 1452.43L2092.23 1452.43ZM2117.41 1547.57L2171.78 1547.57C2188.89 1547.57 2197.45 1561.67 2197.45 1575.52C2197.45 1589.36 2188.89 1603.71 2171.78 1603.71L2117.41 1603.71L2117.41 1547.57Z" />
                <path
                    d="M2211.3 1452.43L2276.49 1556.64L2276.49 1628.38L2302.17 1628.38L2302.17 1556.64L2367.61 1452.43L2337.41 1452.43L2289.33 1529.7L2241.25 1452.43L2211.3 1452.43Z" />
            </g>
            <g>
                <path
                    d="M2395.97 1461.97L2395.97 1470.21L2402.54 1470.21C2404.47 1470.21 2405.43 1468.83 2405.43 1466.09C2405.43 1463.34 2404.45 1461.97 2402.48 1461.97L2395.97 1461.97ZM2395.97 1482.13L2395.97 1497.31L2378.94 1497.31L2378.94 1449.99L2406.29 1449.99C2411.57 1449.99 2415.75 1451.43 2418.83 1454.32C2421.9 1457.21 2423.44 1461.09 2423.44 1465.97C2423.44 1470.84 2421.92 1474.75 2418.89 1477.7C2415.86 1480.65 2411.66 1482.13 2406.29 1482.13L2395.97 1482.13Z" />
                <path
                    d="M2420.24 1517.64L2420.24 1529.62L2407.27 1529.62L2407.27 1564.96L2390.31 1564.96L2390.31 1529.62L2377.34 1529.62L2377.34 1517.64L2420.24 1517.64Z" />
                <path
                    d="M2400.14 1603.54L2407.4 1585.29L2422.51 1585.29L2407.03 1615.64L2407.03 1632.61L2390.07 1632.61L2390.07 1615.21L2374.7 1585.29L2391.66 1585.29L2400.14 1603.54Z" />
            </g>
        </g>
    </g>
</svg>