<?xml version="1.0" encoding="UTF-8" standalone="no"?>
<!DOCTYPE svg PUBLIC "-//W3C//DTD SVG 1.1//EN" "http://www.w3.org/Graphics/SVG/1.1/DTD/svg11.dtd">
<!-- Created with Vectornator (http://vectornator.io/) -->
<svg height="100%" stroke-miterlimit="10"
    style="fill-rule:nonzero;clip-rule:evenodd;stroke-linecap:round;stroke-linejoin:round;" version="1.1"
    viewBox="133.382 1381.6 841.354 229.34" width="100%" xml:space="preserve" xmlns="http://www.w3.org/2000/svg"
    xmlns:xlink="http://www.w3.org/1999/xlink">
    <defs />
    <g id="Isologo">
        <g fill="#000000" fill-rule="nonzero">
            <g>
                <path
                    d="M167.868 1524.09L232.056 1601.37L265.031 1601.37L209.401 1535.17C239.607 1529.88 254.962 1506.22 254.962 1481.3C254.962 1453.36 235.831 1425.17 197.57 1425.17L133.382 1425.17L133.382 1601.37L158.554 1601.37L158.554 1450.84L197.57 1450.84C218.966 1450.84 229.538 1466.2 229.538 1481.3C229.538 1496.65 218.966 1512.01 197.57 1512.01L167.868 1512.01L167.868 1524.09Z" />
                <path
                    d="M436.268 1548.21C412.706 1565.64 392.552 1576.09 366.773 1590.01C351.243 1598.4 408.769 1558.39 446.035 1491.51C408.032 1526.49 346.818 1606.88 311.966 1584.39C289.755 1570.05 305.333 1458.27 402.323 1381.6C391.862 1388.1 381.079 1394.11 370.939 1401.1C339.459 1422.81 316.469 1455.24 301.007 1489.78C293.847 1505.77 288.963 1525.24 287.215 1542.52C286.249 1552.07 286.513 1561.72 286.832 1571.31C287.892 1603.18 309.229 1615.92 339.016 1609.19C378.699 1600.23 408.244 1576.17 436.268 1548.21Z" />
                <path
                    d="M628.18 1486.92C618.866 1440.1 578.088 1422.73 544.358 1422.73C495.776 1422.73 457.767 1459.99 457.767 1512.09C457.767 1563.95 495.021 1601.2 544.358 1601.2C576.326 1601.2 612.573 1579.55 624.656 1545.82L624.656 1546.07C626.921 1540.28 628.18 1530.47 629.438 1515.62L534.541 1515.62L534.541 1541.04L599.736 1541.04C589.164 1566.71 566.006 1576.78 544.358 1576.78C509.873 1576.78 483.191 1549.35 483.191 1512.09C483.191 1475.09 509.873 1448.16 544.358 1448.16C566.761 1448.16 593.946 1458.48 600.994 1486.92L628.18 1486.92Z" />
                <path
                    d="M668.706 1448.16L716.784 1448.16C744.473 1448.16 743.97 1493.97 716.281 1493.97L668.706 1493.97L668.706 1448.16ZM643.535 1423.99L643.535 1599.94L723.077 1599.94C756.807 1599.94 774.176 1573.26 774.176 1546.83C774.176 1530.22 766.876 1511.59 746.739 1503.03C764.359 1490.44 766.624 1470.31 759.576 1452.94C753.032 1436.58 738.935 1423.99 716.784 1423.99L643.535 1423.99ZM668.706 1519.14L723.077 1519.14C740.194 1519.14 748.752 1533.24 748.752 1547.08C748.752 1560.92 740.194 1575.27 723.077 1575.27L668.706 1575.27L668.706 1519.14Z" />
                <path
                    d="M762.597 1423.99L827.792 1528.2L827.792 1599.94L853.467 1599.94L853.467 1528.2L918.913 1423.99L888.707 1423.99L840.629 1501.27L792.551 1423.99L762.597 1423.99Z" />
            </g>
            <g>
                <path
                    d="M947.266 1433.54L947.266 1441.77L953.842 1441.77C955.768 1441.77 956.73 1440.4 956.73 1437.65C956.73 1434.91 955.747 1433.54 953.781 1433.54L947.266 1433.54ZM947.266 1453.69L947.266 1468.87L930.244 1468.87L930.244 1421.55L957.591 1421.55C962.876 1421.55 967.055 1423 970.127 1425.89C973.2 1428.77 974.737 1432.66 974.737 1437.53C974.737 1442.41 973.221 1446.32 970.189 1449.27C967.157 1452.22 962.958 1453.69 957.591 1453.69L947.266 1453.69Z" />
                <path
                    d="M971.541 1489.2L971.541 1501.19L958.574 1501.19L958.574 1536.52L941.613 1536.52L941.613 1501.19L928.646 1501.19L928.646 1489.2L971.541 1489.2Z" />
                <path
                    d="M951.445 1575.1L958.697 1556.85L973.815 1556.85L958.328 1587.21L958.328 1604.17L941.367 1604.17L941.367 1586.78L926.003 1556.85L942.965 1556.85L951.445 1575.1Z" />
            </g>
        </g>
    </g>
</svg>